<mxfile host="app.diagrams.net" agent="Mozilla/5.0 (Macintosh; Intel Mac OS X 10_15_7) AppleWebKit/605.1.15 (KHTML, like Gecko) Version/18.3 Safari/605.1.15" scale="1" border="0" version="26.0.11">
  <diagram name="Page-1" id="h3vyeK9cByl_nekPdxym">
    <mxGraphModel dx="1026" dy="575" grid="1" gridSize="10" guides="1" tooltips="1" connect="1" arrows="1" fold="1" page="1" pageScale="1" pageWidth="827" pageHeight="1169" math="0" shadow="0">
      <root>
        <mxCell id="0" />
        <mxCell id="1" parent="0" />
        <mxCell id="iVu0v2UF6xDI6pIBTd5b-40" style="edgeStyle=orthogonalEdgeStyle;rounded=0;orthogonalLoop=1;jettySize=auto;html=1;entryX=0.5;entryY=0;entryDx=0;entryDy=0;" parent="1" source="iVu0v2UF6xDI6pIBTd5b-28" target="iVu0v2UF6xDI6pIBTd5b-35" edge="1">
          <mxGeometry relative="1" as="geometry" />
        </mxCell>
        <mxCell id="iVu0v2UF6xDI6pIBTd5b-88" value="" style="group" parent="1" vertex="1" connectable="0">
          <mxGeometry x="170" y="750" width="400" height="120" as="geometry" />
        </mxCell>
        <mxCell id="iVu0v2UF6xDI6pIBTd5b-63" value="" style="rounded=0;whiteSpace=wrap;html=1;fillColor=#f5f5f5;strokeColor=#666666;fontColor=#333333;" parent="iVu0v2UF6xDI6pIBTd5b-88" vertex="1">
          <mxGeometry width="400" height="120" as="geometry" />
        </mxCell>
        <mxCell id="iVu0v2UF6xDI6pIBTd5b-64" value="Persistence" style="text;html=1;align=center;verticalAlign=middle;whiteSpace=wrap;rounded=0;" parent="iVu0v2UF6xDI6pIBTd5b-88" vertex="1">
          <mxGeometry x="330" y="90" width="63.16" height="30" as="geometry" />
        </mxCell>
        <mxCell id="iVu0v2UF6xDI6pIBTd5b-65" value="PostgreSQL" style="rounded=1;whiteSpace=wrap;html=1;" parent="iVu0v2UF6xDI6pIBTd5b-88" vertex="1">
          <mxGeometry x="136.84157894736842" y="30" width="126.3157894736842" height="60" as="geometry" />
        </mxCell>
        <mxCell id="iVu0v2UF6xDI6pIBTd5b-89" value="" style="group" parent="1" vertex="1" connectable="0">
          <mxGeometry x="170" y="410" width="400" height="130" as="geometry" />
        </mxCell>
        <mxCell id="iVu0v2UF6xDI6pIBTd5b-48" value="" style="rounded=0;whiteSpace=wrap;html=1;fillColor=#d5e8d4;strokeColor=#82b366;" parent="iVu0v2UF6xDI6pIBTd5b-89" vertex="1">
          <mxGeometry width="400" height="130" as="geometry" />
        </mxCell>
        <mxCell id="iVu0v2UF6xDI6pIBTd5b-51" value="Application" style="text;html=1;align=center;verticalAlign=middle;whiteSpace=wrap;rounded=0;" parent="iVu0v2UF6xDI6pIBTd5b-89" vertex="1">
          <mxGeometry x="330.0021052631579" y="100" width="63.1578947368421" height="30" as="geometry" />
        </mxCell>
        <mxCell id="iVu0v2UF6xDI6pIBTd5b-28" value="Command/Query" style="rounded=1;whiteSpace=wrap;html=1;" parent="iVu0v2UF6xDI6pIBTd5b-89" vertex="1">
          <mxGeometry x="136.84210526315792" y="35" width="126.3157894736842" height="60" as="geometry" />
        </mxCell>
        <mxCell id="iVu0v2UF6xDI6pIBTd5b-38" value="" style="group" parent="1" vertex="1" connectable="0">
          <mxGeometry x="170" y="540" width="400" height="210" as="geometry" />
        </mxCell>
        <mxCell id="iVu0v2UF6xDI6pIBTd5b-39" value="" style="group" parent="iVu0v2UF6xDI6pIBTd5b-38" vertex="1" connectable="0">
          <mxGeometry width="400" height="210" as="geometry" />
        </mxCell>
        <mxCell id="iVu0v2UF6xDI6pIBTd5b-93" value="" style="group" parent="iVu0v2UF6xDI6pIBTd5b-39" vertex="1" connectable="0">
          <mxGeometry width="400" height="210" as="geometry" />
        </mxCell>
        <mxCell id="iVu0v2UF6xDI6pIBTd5b-35" value="" style="rounded=0;whiteSpace=wrap;html=1;fillColor=#dae8fc;strokeColor=#6c8ebf;" parent="iVu0v2UF6xDI6pIBTd5b-93" vertex="1">
          <mxGeometry width="400" height="210" as="geometry" />
        </mxCell>
        <mxCell id="iVu0v2UF6xDI6pIBTd5b-36" value="Domain" style="text;html=1;align=center;verticalAlign=middle;whiteSpace=wrap;rounded=0;" parent="iVu0v2UF6xDI6pIBTd5b-93" vertex="1">
          <mxGeometry x="336.84210526315786" y="180" width="63.1578947368421" height="30" as="geometry" />
        </mxCell>
        <mxCell id="iVu0v2UF6xDI6pIBTd5b-32" value="Entity" style="rounded=1;whiteSpace=wrap;html=1;" parent="iVu0v2UF6xDI6pIBTd5b-93" vertex="1">
          <mxGeometry x="215.78631578947363" y="117.5" width="126.3157894736842" height="60" as="geometry" />
        </mxCell>
        <mxCell id="iVu0v2UF6xDI6pIBTd5b-33" value="Error" style="rounded=1;whiteSpace=wrap;html=1;" parent="iVu0v2UF6xDI6pIBTd5b-93" vertex="1">
          <mxGeometry x="57.8915789473684" y="117.5" width="126.3157894736842" height="60" as="geometry" />
        </mxCell>
        <mxCell id="iVu0v2UF6xDI6pIBTd5b-30" value="Service" style="rounded=1;whiteSpace=wrap;html=1;" parent="iVu0v2UF6xDI6pIBTd5b-93" vertex="1">
          <mxGeometry x="57.8915789473684" y="32.5" width="126.3157894736842" height="60" as="geometry" />
        </mxCell>
        <mxCell id="iVu0v2UF6xDI6pIBTd5b-31" value="Repository" style="rounded=1;whiteSpace=wrap;html=1;" parent="iVu0v2UF6xDI6pIBTd5b-93" vertex="1">
          <mxGeometry x="215.78631578947363" y="32.5" width="126.3157894736842" height="60" as="geometry" />
        </mxCell>
        <mxCell id="x_ES6JS7a6DQbea9RgPf-1" value="" style="group" parent="1" vertex="1" connectable="0">
          <mxGeometry x="170" y="230" width="400" height="178.95" as="geometry" />
        </mxCell>
        <mxCell id="iVu0v2UF6xDI6pIBTd5b-56" value="" style="rounded=0;whiteSpace=wrap;html=1;fillColor=#e1d5e7;strokeColor=#9673a6;labelPosition=center;verticalLabelPosition=bottom;align=center;verticalAlign=top;" parent="x_ES6JS7a6DQbea9RgPf-1" vertex="1">
          <mxGeometry width="400" height="178.95" as="geometry" />
        </mxCell>
        <mxCell id="iVu0v2UF6xDI6pIBTd5b-25" value="Route" style="rounded=1;whiteSpace=wrap;html=1;container=0;" parent="x_ES6JS7a6DQbea9RgPf-1" vertex="1">
          <mxGeometry x="140" y="20" width="120" height="60" as="geometry" />
        </mxCell>
        <mxCell id="iVu0v2UF6xDI6pIBTd5b-57" value="Echo" style="text;html=1;align=center;verticalAlign=middle;whiteSpace=wrap;rounded=0;" parent="x_ES6JS7a6DQbea9RgPf-1" vertex="1">
          <mxGeometry x="340" y="160.00263157894733" width="60" height="18.94736842105263" as="geometry" />
        </mxCell>
        <mxCell id="iVu0v2UF6xDI6pIBTd5b-27" value="Controller" style="rounded=1;whiteSpace=wrap;html=1;" parent="x_ES6JS7a6DQbea9RgPf-1" vertex="1">
          <mxGeometry x="220" y="100" width="120" height="60" as="geometry" />
        </mxCell>
        <mxCell id="iVu0v2UF6xDI6pIBTd5b-26" value="Resolver" style="rounded=1;whiteSpace=wrap;html=1;" parent="x_ES6JS7a6DQbea9RgPf-1" vertex="1">
          <mxGeometry x="70" y="100" width="120" height="60" as="geometry" />
        </mxCell>
      </root>
    </mxGraphModel>
  </diagram>
</mxfile>
